:SAMPLES-PER-SECOND 30
:FULLY-SPECIFIED
:DEGREES
195
root  -54.2207 40.4085 -1.33667 -7.09328 -35.3517 5.15906
RightUpLeg  -6.0074 -17.4318 -13.2048
RightLeg  7.98018 -21.931 3.06743
RightFoot  4.59997 0.277371 -1.75524
RightToes  -2.21189e-009 0 -3.6325e-017
Spine  9.57387 -3.0392 -0.181084
Spine1  13.8573 -2.95638 -0.42009
HEad  -26.3157 50.2463 -33.3726
LeftShoulder1  -0.00402507 3.51687 -27.6733
LeftArm  -4.80483 -8.18884 -46.5099
LeftForeArm  11.9319 -69.209 -30.829
LeftHand  0.0305459 3.26845 -2.73813
RightShoulder  -0.518111 -5.05985 26.527
RightArm  -20.856 -26.5614 36.1027
RightForeArm  110.084 70.4882 144.548
RightHand  -0.0577999 1.66826 -1.10092
LeftUpLeg  2.77574 30.9816 8.27422
LeftLeg  21.7823 9.18732 4.34521
LeftFoot  -7.92926 0.0210907 0.885849
LeftToes  -4.03379e-008 1.61488e-010 -5.81581e-011
196
root  -53.6893 40.39 -1.61826 -6.03249 -30.1759 4.54402
RightUpLeg  -5.40919 -18.1566 -14.3253
RightLeg  6.73062 -26.2344 3.50033
RightFoot  5.77287 0.276721 -1.57609
RightToes  -2.21189e-009 0 -3.6325e-017
Spine  9.21424 -3.09508 -0.565254
Spine1  13.663 -3.27633 0.10109
HEad  -26.1029 51.6759 -32.8844
LeftShoulder1  -0.192786 4.0526 -28.9136
LeftArm  -6.41234 -3.96093 -44.3866
LeftForeArm  15.6126 -70.8248 -33.8886
LeftHand  0.0501485 2.90231 -3.22028
RightShoulder  -0.510222 -5.01309 26.982
RightArm  -17.9495 -29.4485 35.5617
RightForeArm  112.125 70.4734 144.803
RightHand  -0.0225759 1.80946 -0.524959
LeftUpLeg  3.94331 37.1748 11.182
LeftLeg  20.6951 10.8034 4.81318
LeftFoot  -7.67015 0.00217017 1.37799
LeftToes  -4.03379e-008 1.61488e-010 -5.81581e-011
197
root  -53.0535 40.3534 -1.85305 -5.49117 -24.9121 3.86382
RightUpLeg  -3.88936 -18.7317 -15.7017
RightLeg  4.92993 -30.5275 4.19892
RightFoot  7.26394 0.272539 -1.35648
RightToes  -2.21189e-009 0 -3.6325e-017
Spine  9.09272 -3.05611 -0.80988
Spine1  13.8309 -3.481 0.556193
HEad  -25.1839 52.1597 -31.1472
LeftShoulder1  -0.355756 4.49406 -29.827
LeftArm  -7.52127 -0.709646 -42.4462
LeftForeArm  19.1896 -72.128 -36.7965
LeftHand  0.0234465 3.86605 -3.60435
RightShoulder  -0.486776 -4.94666 26.8797
RightArm  -13.8153 -29.4534 34.0104
RightForeArm  110.281 71.458 142.543
RightHand  -0.0447853 1.68896 -0.878725
LeftUpLeg  5.62298 43.3873 14.1953
LeftLeg  19.5994 14.4352 5.86576
LeftFoot  -7.66254 -0.0136182 1.85059
LeftToes  -4.03379e-008 1.61488e-010 -5.81581e-011
198
root  -52.256 40.2624 -2.06951 -4.57353 -19.5297 3.48152
RightUpLeg  -2.96079 -19.6761 -17.4661
RightLeg  3.32613 -34.6745 5.06879
RightFoot  8.79518 0.235651 -0.991287
RightToes  -2.21189e-009 0 -3.6325e-017
Spine  8.34815 -2.8579 -0.784325
Spine1  13.8246 -3.36464 0.743383
HEad  -23.6663 51.4694 -29.2578
LeftShoulder1  -0.295286 4.32648 -29.7608
LeftArm  -7.7694 1.72461 -41.4443
LeftForeArm  21.3223 -72.8662 -38.7395
LeftHand  0.0202061 3.86996 -3.35428
RightShoulder  -0.521369 -5.03498 27.227
RightArm  -8.95465 -27.5396 30.5367
RightForeArm  105.473 72.7242 138.867
RightHand  -0.0854267 2.00686 -1.52125
LeftUpLeg  5.57311 46.3067 14.6925
LeftLeg  18.7362 20.6303 7.08588
LeftFoot  -7.11466 -0.0629337 2.84743
LeftToes  -4.03379e-008 1.61488e-010 -5.81581e-011
199
root  -51.3526 40.1081 -2.27462 -3.9812 -13.6036 2.95598
RightUpLeg  -1.54028 -20.6734 -19.562
RightLeg  2.58532 -39.1098 5.49813
RightFoot  10.0497 0.0770813 -0.0414348
RightToes  -2.21189e-009 0 -3.6325e-017
Spine  8.24191 -2.64198 -0.449694
Spine1  12.9879 -3.21077 1.03609
HEad  -21.1891 50.12 -25.9745
LeftShoulder1  -0.110515 3.8121 -29.5035
LeftArm  -6.94984 3.50829 -40.4114
LeftForeArm  22.1037 -73.25 -39.9349
LeftHand  0.0118825 3.72671 -2.49811
RightShoulder  -0.450306 -4.84455 26.7054
RightArm  -5.06829 -26.2846 27.4367
RightForeArm  100.38 73.7804 135.126
RightHand  -0.0726651 2.29134 -1.28464
LeftUpLeg  4.53047 44.8431 13.7525
LeftLeg  18.266 23.492 6.62019
LeftFoot  -5.86334 -0.00712197 0.906441
LeftToes  -4.03379e-008 1.61488e-010 -5.81581e-011
